<mxfile host="app.diagrams.net" modified="2024-03-25T08:05:25.907Z" agent="Mozilla/5.0 (X11; Linux x86_64) AppleWebKit/537.36 (KHTML, like Gecko) Chrome/115.0.0.0 Safari/537.36" etag="uctgdMHy45Mm2akahT3y" version="24.0.7" type="github">
  <diagram name="Page-1" id="9361dd3d-8414-5efd-6122-117bd74ce7a7">
    <mxGraphModel dx="1780" dy="771" grid="1" gridSize="10" guides="1" tooltips="1" connect="1" arrows="1" fold="1" page="0" pageScale="1.5" pageWidth="826" pageHeight="1169" background="none" math="0" shadow="0">
      <root>
        <mxCell id="0" />
        <mxCell id="1" parent="0" />
        <mxCell id="69" value="" style="fillColor=#DEE8FF;strokeColor=none" parent="1" vertex="1">
          <mxGeometry x="-33" width="1840" height="980" as="geometry" />
        </mxCell>
        <mxCell id="2" value="" style="fillColor=#ffff88;strokeColor=#36393d;" parent="1" vertex="1">
          <mxGeometry x="200" y="150" width="10" height="130" as="geometry" />
        </mxCell>
        <mxCell id="3" value="user input" style="edgeStyle=none;verticalLabelPosition=top;verticalAlign=bottom;labelPosition=left;align=right" parent="1" edge="1">
          <mxGeometry x="110" y="49.5" width="100" height="100" as="geometry">
            <mxPoint x="110" y="149.5" as="sourcePoint" />
            <mxPoint x="200" y="149.5" as="targetPoint" />
          </mxGeometry>
        </mxCell>
        <mxCell id="4" value="gdb.c" style="shadow=1;fillColor=#A2C4C9;strokeColor=none" parent="1" vertex="1">
          <mxGeometry x="152.5" y="60" width="105" height="50" as="geometry" />
        </mxCell>
        <mxCell id="6" value="" style="fillColor=#ffff88;strokeColor=#36393d;" parent="1" vertex="1">
          <mxGeometry x="342.5" y="170" width="10" height="410" as="geometry" />
        </mxCell>
        <mxCell id="7" value="main.c" style="shadow=1;fillColor=#A2C4C9;strokeColor=none" parent="1" vertex="1">
          <mxGeometry x="295" y="60" width="105" height="50" as="geometry" />
        </mxCell>
        <mxCell id="8" value="" style="edgeStyle=none;endArrow=none;dashed=1" parent="1" source="7" target="6" edge="1">
          <mxGeometry x="272.3350694444445" y="165" width="100" height="100" as="geometry">
            <mxPoint x="347.2588734567901" y="110" as="sourcePoint" />
            <mxPoint x="347.5761959876544" y="165" as="targetPoint" />
          </mxGeometry>
        </mxCell>
        <mxCell id="9" value="gdb_main(args)" style="edgeStyle=none;verticalLabelPosition=top;verticalAlign=bottom;entryX=0;entryY=0;entryDx=0;entryDy=0;" parent="1" target="6" edge="1">
          <mxGeometry x="220" y="92" width="100" height="100" as="geometry">
            <mxPoint x="210" y="170" as="sourcePoint" />
            <mxPoint x="340" y="170" as="targetPoint" />
          </mxGeometry>
        </mxCell>
        <mxCell id="13" value="captrured_main(args)" style="edgeStyle=orthogonalEdgeStyle;verticalLabelPosition=top;verticalAlign=bottom;exitX=1.25;exitY=0.213;exitDx=0;exitDy=0;flowAnimation=0;rounded=0;strokeColor=default;jumpStyle=none;shadow=0;comic=0;noJump=0;exitPerimeter=0;entryX=1;entryY=0;entryDx=0;entryDy=0;" parent="1" target="NpjNhpAdD-cPr5dTdstZ-95" edge="1">
          <mxGeometry width="100" height="100" as="geometry">
            <mxPoint x="352.5" y="175.00000000000006" as="sourcePoint" />
            <mxPoint x="358" y="195" as="targetPoint" />
            <Array as="points">
              <mxPoint x="425" y="176" />
              <mxPoint x="425" y="195" />
            </Array>
            <mxPoint x="55" y="-9" as="offset" />
          </mxGeometry>
        </mxCell>
        <mxCell id="33" value="" style="edgeStyle=elbowEdgeStyle;elbow=horizontal;endArrow=none;dashed=1" parent="1" source="4" target="2" edge="1">
          <mxGeometry x="230.00000000000003" y="310" width="100" height="100" as="geometry">
            <mxPoint x="230.00000000000003" y="410" as="sourcePoint" />
            <mxPoint x="330" y="310" as="targetPoint" />
          </mxGeometry>
        </mxCell>
        <mxCell id="71" value="gdb command input" style="rounded=1;fontStyle=1;fillColor=#FFD966;strokeColor=none" parent="1" vertex="1">
          <mxGeometry x="50" y="20" width="150" height="30" as="geometry" />
        </mxCell>
        <mxCell id="NpjNhpAdD-cPr5dTdstZ-95" value="" style="fillColor=#ffff88;strokeColor=#36393d;" parent="1" vertex="1">
          <mxGeometry x="348" y="195" width="10" height="375" as="geometry" />
        </mxCell>
        <mxCell id="NpjNhpAdD-cPr5dTdstZ-96" value="" style="fillColor=#ffff88;strokeColor=#36393d;" parent="1" vertex="1">
          <mxGeometry x="354" y="240" width="10" height="70" as="geometry" />
        </mxCell>
        <mxCell id="NpjNhpAdD-cPr5dTdstZ-100" value="captrured_main_1(args)" style="edgeStyle=orthogonalEdgeStyle;verticalLabelPosition=top;verticalAlign=bottom;exitX=1.25;exitY=0.213;exitDx=0;exitDy=0;flowAnimation=0;rounded=0;strokeColor=default;jumpStyle=none;shadow=0;comic=0;noJump=0;exitPerimeter=0;entryX=1;entryY=0;entryDx=0;entryDy=0;" parent="1" target="NpjNhpAdD-cPr5dTdstZ-96" edge="1">
          <mxGeometry width="100" height="100" as="geometry">
            <mxPoint x="358" y="220.00000000000006" as="sourcePoint" />
            <mxPoint x="363.5" y="240" as="targetPoint" />
            <Array as="points">
              <mxPoint x="431" y="221" />
              <mxPoint x="431" y="240" />
            </Array>
            <mxPoint x="70" y="-10" as="offset" />
          </mxGeometry>
        </mxCell>
        <mxCell id="NpjNhpAdD-cPr5dTdstZ-152" value="" style="fillColor=#ffff88;strokeColor=#36393d;" parent="1" vertex="1">
          <mxGeometry x="1058.5" y="260" width="10" height="40" as="geometry" />
        </mxCell>
        <mxCell id="NpjNhpAdD-cPr5dTdstZ-154" value="new ui(stdin, stdout, stderr)" style="edgeStyle=none;verticalLabelPosition=top;verticalAlign=bottom;entryX=0;entryY=0;entryDx=0;entryDy=0;strokeColor=default;fontStyle=1;fontColor=#ff0000;" parent="1" edge="1" target="NpjNhpAdD-cPr5dTdstZ-152">
          <mxGeometry width="100" height="100" as="geometry">
            <mxPoint x="363.75" y="260" as="sourcePoint" />
            <mxPoint x="567.4999999999998" y="260.42" as="targetPoint" />
            <mxPoint x="15" as="offset" />
          </mxGeometry>
        </mxCell>
        <mxCell id="NpjNhpAdD-cPr5dTdstZ-155" value="return new_ui" style="edgeStyle=none;verticalLabelPosition=top;verticalAlign=bottom;entryX=0.96;entryY=0.874;entryDx=0;entryDy=0;dashed=1;exitX=0;exitY=1;exitDx=0;exitDy=0;entryPerimeter=0;" parent="1" target="NpjNhpAdD-cPr5dTdstZ-96" edge="1" source="NpjNhpAdD-cPr5dTdstZ-152">
          <mxGeometry x="220" y="92" width="100" height="100" as="geometry">
            <mxPoint x="567.5" y="290" as="sourcePoint" />
            <mxPoint x="376.25" y="290" as="targetPoint" />
          </mxGeometry>
        </mxCell>
        <mxCell id="NpjNhpAdD-cPr5dTdstZ-170" value="" style="edgeStyle=none;endArrow=none;dashed=1;exitX=0.5;exitY=1;exitDx=0;exitDy=0;" parent="1" edge="1">
          <mxGeometry x="96.57118055555588" y="-70.3028549382716" width="100" height="100" as="geometry">
            <mxPoint x="204.37999999999997" y="280" as="sourcePoint" />
            <mxPoint x="204.37999999999997" y="360" as="targetPoint" />
          </mxGeometry>
        </mxCell>
        <mxCell id="8tz-lUX5db71lzaxd9jw-120" value="" style="group" vertex="1" connectable="0" parent="1">
          <mxGeometry x="750" y="60" width="105" height="50" as="geometry" />
        </mxCell>
        <mxCell id="NpjNhpAdD-cPr5dTdstZ-157" value="event-top.c" style="shadow=1;fillColor=#A2C4C9;strokeColor=none" parent="8tz-lUX5db71lzaxd9jw-120" vertex="1">
          <mxGeometry width="105" height="50" as="geometry" />
        </mxCell>
        <mxCell id="8tz-lUX5db71lzaxd9jw-121" value="" style="group" vertex="1" connectable="0" parent="1">
          <mxGeometry x="493" y="60" width="105" height="50" as="geometry" />
        </mxCell>
        <mxCell id="24" value="event-loop.cc" style="shadow=1;fillColor=#A2C4C9;strokeColor=none" parent="8tz-lUX5db71lzaxd9jw-121" vertex="1">
          <mxGeometry width="105" height="50" as="geometry" />
        </mxCell>
        <mxCell id="8tz-lUX5db71lzaxd9jw-92" value="" style="edgeStyle=none;endArrow=none;dashed=1;exitX=0.5;exitY=1;exitDx=0;exitDy=0;entryX=0.5;entryY=0;entryDx=0;entryDy=0;" edge="1" parent="1" source="8tz-lUX5db71lzaxd9jw-86" target="NpjNhpAdD-cPr5dTdstZ-152">
          <mxGeometry x="1907.3350694444446" y="225" width="100" height="100" as="geometry">
            <mxPoint x="1254" y="120" as="sourcePoint" />
            <mxPoint x="1064" y="260" as="targetPoint" />
          </mxGeometry>
        </mxCell>
        <mxCell id="8tz-lUX5db71lzaxd9jw-86" value="top.c" style="shadow=1;fillColor=#A2C4C9;strokeColor=none" vertex="1" parent="1">
          <mxGeometry x="1011" y="60" width="105" height="50" as="geometry" />
        </mxCell>
        <mxCell id="8tz-lUX5db71lzaxd9jw-90" value="cli-decode.c" style="shadow=1;fillColor=#A2C4C9;strokeColor=none" vertex="1" parent="1">
          <mxGeometry x="1260" y="60" width="105" height="50" as="geometry" />
        </mxCell>
        <mxCell id="8tz-lUX5db71lzaxd9jw-97" value="" style="edgeStyle=none;endArrow=none;dashed=1;entryX=0.5;entryY=0;entryDx=0;entryDy=0;exitX=0.5;exitY=1;exitDx=0;exitDy=0;" edge="1" parent="1" source="8tz-lUX5db71lzaxd9jw-90" target="8tz-lUX5db71lzaxd9jw-93">
          <mxGeometry x="2147.3350694444443" y="225" width="100" height="100" as="geometry">
            <mxPoint x="1472.66" y="110" as="sourcePoint" />
            <mxPoint x="1472.66" y="760" as="targetPoint" />
          </mxGeometry>
        </mxCell>
        <mxCell id="NpjNhpAdD-cPr5dTdstZ-158" value="" style="edgeStyle=none;endArrow=none;dashed=1;entryX=0.5;entryY=0;entryDx=0;entryDy=0;" parent="1" source="NpjNhpAdD-cPr5dTdstZ-157" target="NpjNhpAdD-cPr5dTdstZ-161" edge="1">
          <mxGeometry x="1677.3350694444446" y="225" width="100" height="100" as="geometry">
            <mxPoint x="1212.25887345679" y="110" as="sourcePoint" />
            <mxPoint x="1040" y="220" as="targetPoint" />
          </mxGeometry>
        </mxCell>
        <mxCell id="25" value="" style="edgeStyle=none;endArrow=none;dashed=1" parent="1" source="24" target="26" edge="1">
          <mxGeometry x="1237.3350694444446" y="225" width="100" height="100" as="geometry">
            <mxPoint x="772.2588734567901" y="110" as="sourcePoint" />
            <mxPoint x="772.5761959876544" y="165" as="targetPoint" />
          </mxGeometry>
        </mxCell>
        <mxCell id="8tz-lUX5db71lzaxd9jw-95" value="lookup_cmd" style="edgeStyle=elbowEdgeStyle;elbow=vertical;verticalLabelPosition=top;verticalAlign=bottom;entryX=0;entryY=0;entryDx=0;entryDy=0;exitX=1;exitY=0.25;exitDx=0;exitDy=0;" edge="1" parent="1" source="8tz-lUX5db71lzaxd9jw-89" target="8tz-lUX5db71lzaxd9jw-93">
          <mxGeometry x="1495.3545232273839" y="693.7361111111111" width="138.14180929095355" height="100" as="geometry">
            <mxPoint x="1163.8141809290953" y="742.4104012345679" as="sourcePoint" />
            <mxPoint x="1432.5" y="742" as="targetPoint" />
            <Array as="points" />
          </mxGeometry>
        </mxCell>
        <mxCell id="8tz-lUX5db71lzaxd9jw-93" value="" style="fillColor=#ffff88;strokeColor=#36393d;" vertex="1" parent="1">
          <mxGeometry x="1307.5" y="758" width="10" height="55" as="geometry" />
        </mxCell>
        <mxCell id="8tz-lUX5db71lzaxd9jw-101" value="return command" style="edgeStyle=elbowEdgeStyle;elbow=vertical;verticalLabelPosition=top;verticalAlign=bottom;entryX=1;entryY=0.75;entryDx=0;entryDy=0;exitX=0;exitY=1;exitDx=0;exitDy=0;" edge="1" parent="1" source="8tz-lUX5db71lzaxd9jw-93" target="8tz-lUX5db71lzaxd9jw-89">
          <mxGeometry x="1510" y="696.7361111111111" width="100" height="100" as="geometry">
            <mxPoint x="1454.5" y="812" as="sourcePoint" />
            <mxPoint x="1260" y="812.4104012345679" as="targetPoint" />
            <Array as="points" />
          </mxGeometry>
        </mxCell>
        <mxCell id="8tz-lUX5db71lzaxd9jw-100" value="lookup_cmd_1" style="edgeStyle=orthogonalEdgeStyle;verticalLabelPosition=top;verticalAlign=bottom;flowAnimation=0;rounded=0;strokeColor=default;jumpStyle=none;shadow=0;comic=0;noJump=0;entryX=1;entryY=0;entryDx=0;entryDy=0;exitX=1;exitY=0;exitDx=0;exitDy=0;" edge="1" parent="1" source="8tz-lUX5db71lzaxd9jw-93" target="8tz-lUX5db71lzaxd9jw-99">
          <mxGeometry x="360" y="-375" width="100" height="100" as="geometry">
            <mxPoint x="1318" y="757.99" as="sourcePoint" />
            <mxPoint x="1324.51" y="777.99" as="targetPoint" />
            <Array as="points">
              <mxPoint x="1395" y="758" />
              <mxPoint x="1395" y="778" />
            </Array>
            <mxPoint x="77" y="-10" as="offset" />
          </mxGeometry>
        </mxCell>
        <mxCell id="8tz-lUX5db71lzaxd9jw-105" value="" style="group;strokeWidth=4;" vertex="1" connectable="0" parent="1">
          <mxGeometry x="796.5" y="599" width="222.5" height="240" as="geometry" />
        </mxCell>
        <mxCell id="NpjNhpAdD-cPr5dTdstZ-161" value="" style="fillColor=#ffff88;strokeColor=#36393d;" parent="8tz-lUX5db71lzaxd9jw-105" vertex="1">
          <mxGeometry width="10" height="240" as="geometry" />
        </mxCell>
        <mxCell id="NpjNhpAdD-cPr5dTdstZ-162" value="execute_command(*p, from_tty)" style="edgeStyle=elbowEdgeStyle;elbow=vertical;verticalLabelPosition=top;verticalAlign=bottom;entryX=0;entryY=0;entryDx=0;entryDy=0;" parent="8tz-lUX5db71lzaxd9jw-105" edge="1" target="8tz-lUX5db71lzaxd9jw-89">
          <mxGeometry x="1253.5" y="516.7361111111111" width="100" height="100" as="geometry">
            <mxPoint x="28" y="161.41040123456787" as="sourcePoint" />
            <mxPoint x="264.5" y="161" as="targetPoint" />
            <Array as="points" />
          </mxGeometry>
        </mxCell>
        <mxCell id="8tz-lUX5db71lzaxd9jw-75" value="ui-&gt;call_readline(client_data)" style="edgeStyle=orthogonalEdgeStyle;verticalLabelPosition=top;verticalAlign=bottom;flowAnimation=0;rounded=0;strokeColor=default;jumpStyle=none;shadow=0;comic=0;noJump=0;entryX=1;entryY=0;entryDx=0;entryDy=0;exitX=1.248;exitY=0.064;exitDx=0;exitDy=0;exitPerimeter=0;" edge="1" parent="8tz-lUX5db71lzaxd9jw-105" source="NpjNhpAdD-cPr5dTdstZ-161" target="8tz-lUX5db71lzaxd9jw-73">
          <mxGeometry x="393.5" y="-145" width="100" height="100" as="geometry">
            <mxPoint x="12.5" y="16" as="sourcePoint" />
            <mxPoint x="19.00999999999999" y="36" as="targetPoint" />
            <Array as="points">
              <mxPoint x="89" y="15" />
              <mxPoint x="89" y="36" />
            </Array>
            <mxPoint x="77" y="-10" as="offset" />
          </mxGeometry>
        </mxCell>
        <mxCell id="8tz-lUX5db71lzaxd9jw-85" value="command_line_handler(*rl)" style="edgeStyle=orthogonalEdgeStyle;verticalLabelPosition=top;verticalAlign=bottom;flowAnimation=0;rounded=0;strokeColor=default;jumpStyle=none;shadow=0;comic=0;noJump=0;entryX=1;entryY=0;entryDx=0;entryDy=0;" edge="1" parent="8tz-lUX5db71lzaxd9jw-105" target="8tz-lUX5db71lzaxd9jw-84">
          <mxGeometry x="103.5" y="-555" width="100" height="100" as="geometry">
            <mxPoint x="22" y="97" as="sourcePoint" />
            <mxPoint x="28.50999999999999" y="117" as="targetPoint" />
            <Array as="points">
              <mxPoint x="99" y="97" />
              <mxPoint x="99" y="117" />
            </Array>
            <mxPoint x="77" y="-10" as="offset" />
          </mxGeometry>
        </mxCell>
        <mxCell id="8tz-lUX5db71lzaxd9jw-73" value="" style="fillColor=#ffff88;strokeColor=#36393d;" vertex="1" parent="8tz-lUX5db71lzaxd9jw-105">
          <mxGeometry x="6" y="36" width="10" height="205" as="geometry" />
        </mxCell>
        <mxCell id="8tz-lUX5db71lzaxd9jw-83" value="ui-&gt;input_handler(result)" style="edgeStyle=orthogonalEdgeStyle;verticalLabelPosition=top;verticalAlign=bottom;flowAnimation=0;rounded=0;strokeColor=default;jumpStyle=none;shadow=0;comic=0;noJump=0;entryX=1;entryY=0;entryDx=0;entryDy=0;" edge="1" parent="8tz-lUX5db71lzaxd9jw-105" target="8tz-lUX5db71lzaxd9jw-82">
          <mxGeometry x="393.5" y="-144" width="100" height="100" as="geometry">
            <mxPoint x="16" y="56" as="sourcePoint" />
            <mxPoint x="22.50999999999999" y="76" as="targetPoint" />
            <Array as="points">
              <mxPoint x="93" y="56" />
              <mxPoint x="93" y="76" />
            </Array>
            <mxPoint x="77" y="-10" as="offset" />
          </mxGeometry>
        </mxCell>
        <mxCell id="8tz-lUX5db71lzaxd9jw-82" value="" style="fillColor=#ffff88;strokeColor=#36393d;" vertex="1" parent="8tz-lUX5db71lzaxd9jw-105">
          <mxGeometry x="12" y="76" width="10" height="155" as="geometry" />
        </mxCell>
        <mxCell id="8tz-lUX5db71lzaxd9jw-84" value="" style="fillColor=#ffff88;strokeColor=#36393d;" vertex="1" parent="8tz-lUX5db71lzaxd9jw-105">
          <mxGeometry x="18" y="117" width="10" height="104" as="geometry" />
        </mxCell>
        <mxCell id="8tz-lUX5db71lzaxd9jw-99" value="" style="fillColor=#ffff88;strokeColor=#36393d;" vertex="1" parent="1">
          <mxGeometry x="1313" y="778" width="10" height="22" as="geometry" />
        </mxCell>
        <mxCell id="8tz-lUX5db71lzaxd9jw-128" value="" style="edgeStyle=none;endArrow=none;dashed=1;exitX=0.5;exitY=1;exitDx=0;exitDy=0;entryX=0.5;entryY=0;entryDx=0;entryDy=0;" edge="1" parent="1" source="NpjNhpAdD-cPr5dTdstZ-152" target="8tz-lUX5db71lzaxd9jw-89">
          <mxGeometry x="1907.3350694444446" y="225" width="100" height="100" as="geometry">
            <mxPoint x="1063.24" y="310" as="sourcePoint" />
            <mxPoint x="1063.24" y="460" as="targetPoint" />
          </mxGeometry>
        </mxCell>
        <mxCell id="8tz-lUX5db71lzaxd9jw-129" value="stdin_event_handlerI(error, client_data)" style="edgeStyle=elbowEdgeStyle;elbow=horizontal;verticalLabelPosition=top;verticalAlign=bottom;entryX=0;entryY=0;entryDx=0;entryDy=0;exitX=1.049;exitY=0.289;exitDx=0;exitDy=0;exitPerimeter=0;" edge="1" parent="1" source="NpjNhpAdD-cPr5dTdstZ-143" target="NpjNhpAdD-cPr5dTdstZ-161">
          <mxGeometry x="580" y="374.7361111111111" width="100" height="100" as="geometry">
            <mxPoint x="600" y="590" as="sourcePoint" />
            <mxPoint x="784" y="590.5" as="targetPoint" />
            <Array as="points">
              <mxPoint x="700" y="600" />
            </Array>
          </mxGeometry>
        </mxCell>
        <mxCell id="NpjNhpAdD-cPr5dTdstZ-94" value="captrured_command_loop()" style="edgeStyle=orthogonalEdgeStyle;verticalLabelPosition=top;verticalAlign=bottom;flowAnimation=0;rounded=0;strokeColor=default;jumpStyle=none;shadow=0;comic=0;noJump=0;entryX=1;entryY=0;entryDx=0;entryDy=0;" parent="1" target="NpjNhpAdD-cPr5dTdstZ-102" edge="1">
          <mxGeometry x="250" y="330" width="100" height="100" as="geometry">
            <mxPoint x="360" y="370" as="sourcePoint" />
            <mxPoint x="366.25" y="389.39" as="targetPoint" />
            <Array as="points">
              <mxPoint x="436" y="370" />
              <mxPoint x="436" y="390" />
            </Array>
            <mxPoint x="77" y="-10" as="offset" />
          </mxGeometry>
        </mxCell>
        <mxCell id="NpjNhpAdD-cPr5dTdstZ-102" value="" style="fillColor=#ffff88;strokeColor=#36393d;" parent="1" vertex="1">
          <mxGeometry x="354" y="390" width="10" height="150" as="geometry" />
        </mxCell>
        <mxCell id="NpjNhpAdD-cPr5dTdstZ-105" value="while(1)" style="swimlane;whiteSpace=wrap;html=1;swimlaneFillColor=none;container=0;fillColor=#f5f5f5;strokeColor=#666666;gradientColor=#b3b3b3;" parent="1" vertex="1">
          <mxGeometry x="250" y="326" width="1380" height="610" as="geometry" />
        </mxCell>
        <mxCell id="NpjNhpAdD-cPr5dTdstZ-106" value="start_event_loop()" style="edgeStyle=orthogonalEdgeStyle;verticalLabelPosition=top;verticalAlign=bottom;flowAnimation=0;rounded=0;strokeColor=default;jumpStyle=none;shadow=0;comic=0;noJump=0;entryX=1;entryY=0;entryDx=0;entryDy=0;" parent="1" target="NpjNhpAdD-cPr5dTdstZ-107" edge="1">
          <mxGeometry x="250" y="330" width="100" height="100" as="geometry">
            <mxPoint x="363.75" y="410.04" as="sourcePoint" />
            <mxPoint x="380" y="430" as="targetPoint" />
            <Array as="points">
              <mxPoint x="440" y="410" />
              <mxPoint x="440" y="430" />
            </Array>
            <mxPoint x="77" y="-10" as="offset" />
          </mxGeometry>
        </mxCell>
        <mxCell id="NpjNhpAdD-cPr5dTdstZ-107" value="" style="fillColor=#ffff88;strokeColor=#36393d;" parent="1" vertex="1">
          <mxGeometry x="360" y="430" width="10" height="90" as="geometry" />
        </mxCell>
        <mxCell id="34" value="gdb_do_one_event(void)" style="edgeStyle=elbowEdgeStyle;elbow=vertical;verticalLabelPosition=top;verticalAlign=bottom;entryX=0;entryY=0;entryDx=0;entryDy=0;exitX=1;exitY=0.75;exitDx=0;exitDy=0;" parent="1" target="26" edge="1" source="NpjNhpAdD-cPr5dTdstZ-107">
          <mxGeometry x="830" y="704.7361111111111" width="100" height="100" as="geometry">
            <mxPoint x="372.5" y="482.82040123456784" as="sourcePoint" />
            <mxPoint x="740" y="482" as="targetPoint" />
            <Array as="points" />
          </mxGeometry>
        </mxCell>
        <mxCell id="8tz-lUX5db71lzaxd9jw-89" value="" style="fillColor=#ffff88;strokeColor=#36393d;" vertex="1" parent="1">
          <mxGeometry x="1058.5" y="732" width="10" height="108" as="geometry" />
        </mxCell>
        <mxCell id="8tz-lUX5db71lzaxd9jw-104" value="" style="group" vertex="1" connectable="0" parent="1">
          <mxGeometry x="544" y="498" width="91.50999999999999" height="200" as="geometry" />
        </mxCell>
        <mxCell id="26" value="" style="fillColor=#ffff88;strokeColor=#36393d;" parent="8tz-lUX5db71lzaxd9jw-104" vertex="1">
          <mxGeometry width="10" height="200" as="geometry" />
        </mxCell>
        <mxCell id="NpjNhpAdD-cPr5dTdstZ-138" value="" style="fillColor=#ffff88;strokeColor=#36393d;" parent="8tz-lUX5db71lzaxd9jw-104" vertex="1">
          <mxGeometry x="5.509999999999991" y="29.409999999999968" width="10" height="154.59" as="geometry" />
        </mxCell>
        <mxCell id="NpjNhpAdD-cPr5dTdstZ-136" value="gdb_wait_for_event(block)" style="edgeStyle=orthogonalEdgeStyle;verticalLabelPosition=top;verticalAlign=bottom;flowAnimation=0;rounded=0;strokeColor=default;jumpStyle=none;shadow=0;comic=0;noJump=0;entryX=1;entryY=0;entryDx=0;entryDy=0;" parent="8tz-lUX5db71lzaxd9jw-104" target="NpjNhpAdD-cPr5dTdstZ-138" edge="1">
          <mxGeometry x="-300" y="-290" width="100" height="100" as="geometry">
            <mxPoint x="10" y="10" as="sourcePoint" />
            <mxPoint x="20" y="29.95999999999998" as="targetPoint" />
            <Array as="points">
              <mxPoint x="86.50999999999999" y="10" />
              <mxPoint x="86.50999999999999" y="29" />
            </Array>
            <mxPoint x="77" y="-10" as="offset" />
          </mxGeometry>
        </mxCell>
        <mxCell id="NpjNhpAdD-cPr5dTdstZ-144" value="handle_file_event(*file_ptr, ready_mask)" style="edgeStyle=orthogonalEdgeStyle;verticalLabelPosition=top;verticalAlign=bottom;flowAnimation=0;rounded=0;strokeColor=default;jumpStyle=none;shadow=0;comic=0;noJump=0;entryX=1;entryY=0;entryDx=0;entryDy=0;" parent="8tz-lUX5db71lzaxd9jw-104" target="NpjNhpAdD-cPr5dTdstZ-143" edge="1">
          <mxGeometry x="-610" y="-700" width="100" height="100" as="geometry">
            <mxPoint x="15" y="55" as="sourcePoint" />
            <mxPoint x="25" y="74.96000000000004" as="targetPoint" />
            <Array as="points">
              <mxPoint x="91.50999999999999" y="55" />
              <mxPoint x="91.50999999999999" y="75" />
            </Array>
            <mxPoint x="77" y="-10" as="offset" />
          </mxGeometry>
        </mxCell>
        <mxCell id="NpjNhpAdD-cPr5dTdstZ-143" value="" style="fillColor=#ffff88;strokeColor=#36393d;" parent="8tz-lUX5db71lzaxd9jw-104" vertex="1">
          <mxGeometry x="11.509999999999991" y="75" width="10" height="90" as="geometry" />
        </mxCell>
        <mxCell id="NpjNhpAdD-cPr5dTdstZ-127" value="while(1)" style="swimlane;whiteSpace=wrap;html=1;container=0;fillColor=#f5f5f5;strokeColor=#666666;gradientColor=#b3b3b3;" parent="1" vertex="1">
          <mxGeometry x="280" y="443" width="1330" height="437" as="geometry" />
        </mxCell>
        <mxCell id="NpjNhpAdD-cPr5dTdstZ-169" value="" style="edgeStyle=none;endArrow=none;dashed=1;exitX=0.5;exitY=1;exitDx=0;exitDy=0;" parent="NpjNhpAdD-cPr5dTdstZ-127" edge="1">
          <mxGeometry x="96.57118055555588" y="-70.3028549382716" width="100" height="100" as="geometry">
            <mxPoint x="66.58999999999997" y="170" as="sourcePoint" />
            <mxPoint x="66.58999999999997" y="250" as="targetPoint" />
          </mxGeometry>
        </mxCell>
      </root>
    </mxGraphModel>
  </diagram>
</mxfile>
